<?xml version="1.0" standalone="no"?>
<!DOCTYPE svg PUBLIC "-//W3C//DTD SVG 1.1//EN" "http://www.w3.org/Graphics/SVG/1.1/DTD/svg11.dtd" >
<svg xmlns="http://www.w3.org/2000/svg">
<metadata></metadata>
<defs>
<font id="CoolveticaRgRegular" horiz-adv-x="376" >
<font-face units-per-em="2048" ascent="1571" descent="-477" />
<missing-glyph horiz-adv-x="505" />
<glyph unicode="&#x28;C&#x29;" horiz-adv-x="1363" d="M31 682q0 143 51 271t140 222.5t207 149.5t253 55t254 -55t207 -149.5t139 -222.5t51 -272t-51 -271t-139 -222.5t-207 -150.5t-254 -55t-253 55t-207 151q-191 204 -191 494zM137 680q0 -245 160 -418q159 -172 388 -172q114 0 214 46t175 126q163 174 163 418 q0 241 -163 417q-162 175 -388 175q-229 0 -389 -175t-160 -417zM438 678q0 129 65.5 203.5t182 74.5t184.5 -54t74 -146h-145q-8 39 -36 60.5t-71 21.5t-73.5 -42t-30.5 -108q0 -168 108 -168q37 0 66 23.5t33 66.5h147q-10 -92 -80.5 -149.5t-182.5 -57.5t-176.5 73 t-64.5 202z" />
<glyph unicode="&#x28;R&#x29;" horiz-adv-x="915" d="M86 1012q0 165 114 278q117 115 277 115q162 0 279 -115q114 -113 114 -278q0 -164 -114 -277q-116 -114 -279 -114q-161 0 -277 114q-114 113 -114 277zM147 1012q0 -137 97 -234q96 -96 233 -96q138 0 234 96t96 234q0 137 -96 233t-234 96q-137 0 -233 -96 q-97 -97 -97 -233zM344 850v358h182q51 0 81 -29.5t30 -83t-53 -73.5q25 -8 34 -23.5t9 -46.5v-102h-74v92q0 27 -11.5 38t-43.5 11h-80v-141h-74zM418 1051h94q55 0 55 48t-53 48h-96v-96z" />
<glyph horiz-adv-x="0" />
<glyph horiz-adv-x="0" />
<glyph unicode="&#xd;" horiz-adv-x="0" />
<glyph horiz-adv-x="505" />
<glyph unicode=" "  horiz-adv-x="505" />
<glyph unicode="&#x09;" horiz-adv-x="505" />
<glyph unicode="&#xa0;" horiz-adv-x="505" />
<glyph unicode="!" horiz-adv-x="493" d="M96 1214q0 107 10 146h283q8 -70 8 -152q0 -351 -80 -831h-141q-80 480 -80 837zM106 0v268h277v-268h-277z" />
<glyph unicode="&#x22;" horiz-adv-x="540" d="M47 848v512h182v-512h-182zM317 848v512h182v-512h-182z" />
<glyph unicode="#" horiz-adv-x="1015" d="M18 387l19 174h182l31 238h-178l20 174h180l54 387h170l-52 -387h183l49 387h176l-51 -387h180l-25 -174h-178l-30 -238h180l-21 -174h-182l-51 -387h-178l55 387h-180l-49 -387h-175l50 387h-179zM391 561h182l31 238h-180z" />
<glyph unicode="$" horiz-adv-x="976" d="M29 408h245q16 -128 56 -178q39 -48 129 -60v395q-213 56 -305 141q-101 93 -101 250q0 161 116 275q115 113 290 117v90h84v-90q379 -12 397 -398h-242q-10 111 -48 151t-107 44v-352q262 -86 347 -179q44 -49 58.5 -106t14.5 -140t-30 -156t-85 -126 q-115 -111 -305 -119v-80h-84v80q-230 20 -329 121q-101 103 -101 320zM297 990.5q0 -60.5 42 -111t120 -60.5v326q-76 -4 -119 -49t-43 -105.5zM543 170q78 4 124 55t46 120t-46 118t-124 69v-362z" />
<glyph unicode="%" horiz-adv-x="1351" d="M37 1045q0 193 60.5 276.5t171.5 83.5q235 0 235 -358q0 -190 -62 -279.5t-173 -89.5q-232 0 -232 367zM137 -41l945 1442h139l-946 -1442h-138zM176 1042q0 -256 97 -256q49 0 72.5 57.5t23.5 197.5t-23.5 198.5t-71.5 58.5t-73 -57t-25 -199zM860 322q0 193 60.5 276.5 t171.5 83.5q235 0 235 -358q0 -190 -62 -279.5t-173 -89.5q-232 0 -232 367zM999 319q0 -256 97 -256q49 0 72.5 57.5t23.5 197.5t-23.5 198.5t-71.5 58.5t-73 -57t-25 -199z" />
<glyph unicode="&#x26;" horiz-adv-x="1019" d="M37 379q0 99 33 166q58 116 131 149q-158 82 -158 285q0 170 141 275q142 106 371 106v-223q-139 0 -194.5 -44t-55.5 -137.5t57.5 -134.5t192.5 -41v-192q-258 0 -258 -205q0 -142 124 -193q42 -18 101 -18q205 0 205 242v366h256v-366q0 -206 -128 -336 q-124 -125 -331 -125q-226 0 -360 123q-127 117 -127 303z" />
<glyph unicode="'" horiz-adv-x="270" d="M47 848v512h182v-512h-182z" />
<glyph unicode="(" horiz-adv-x="659" d="M137 616q0 502 328 875h194q-249 -416 -249 -879q0 -465 249 -905h-194q-160 193 -244 428.5t-84 480.5z" />
<glyph unicode=")" horiz-adv-x="659" d="M16 -293q250 438 250 905q0 461 -250 879h195q168 -190 248 -414.5t80 -465.5t-84 -476t-244 -428h-195z" />
<glyph unicode="*" horiz-adv-x="1093" d="M66 905l67 207l293 -94v342h242v-342l293 94l73 -207l-303 -94l197 -279l-180 -129l-201 265l-195 -265l-184 129l197 279z" />
<glyph unicode="+" horiz-adv-x="1060" d="M47 606v193h385v385h193v-385h387v-193h-387v-387h-193v387h-385z" />
<glyph unicode="," d="M47 0v276h283v-208q0 -177 -62 -264q-64 -92 -221 -123v102q78 20 117 69.5t41 147.5h-158z" />
<glyph unicode="-" horiz-adv-x="561" d="M27 526v207h508v-207h-508z" />
<glyph unicode="." d="M47 0v276h285v-276h-285z" />
<glyph unicode="/" horiz-adv-x="602" d="M-10 0l389 1360h223l-393 -1360h-219z" />
<glyph unicode="0" horiz-adv-x="993" d="M35 686q0 551 266 678q86 41 197 41q471 0 471 -715q0 -379 -126 -558t-345 -179q-463 0 -463 733zM311 682q0 -407 110 -488q36 -26 85 -26q100 0 144 116q48 122 48 394q0 405 -107 486q-36 28 -85 28q-100 0 -146 -114q-49 -122 -49 -396z" />
<glyph unicode="1" horiz-adv-x="600" d="M8 940v184q244 0 302 132q20 44 26 104h217v-1360h-266v940h-279z" />
<glyph unicode="2" horiz-adv-x="942" d="M8 0q0 202 75 338q89 161 335 338q144 99 198 170q54 69 54 153q0 179 -189 179q-92 0 -145 -52.5t-53 -189.5h-256q0 221 115.5 345t326.5 124q325 0 427 -223q34 -74 34 -163t-20.5 -152.5t-66.5 -124.5q-74 -99 -306 -267q-78 -57 -131.5 -123.5t-57.5 -120.5h586 v-231h-926z" />
<glyph unicode="3" horiz-adv-x="970" d="M27 399h256q0 -227 202 -227q84 0 139.5 58.5t55.5 172t-68.5 160.5t-234.5 47v187q227 0 265 115q11 34 11 71q0 209 -176 209q-78 0 -129 -58.5t-51 -164.5h-248q0 195 122 315q123 121 316 121q180 0 299 -103q123 -105 123 -268q0 -92 -40 -175t-119 -130 q202 -85 202 -336q0 -205 -132 -323q-133 -117 -346.5 -117t-330 118.5t-116.5 327.5z" />
<glyph unicode="4" horiz-adv-x="964" d="M8 297v231l496 832h299v-856h153v-207h-153v-297h-266v297h-529zM264 504h279v479z" />
<glyph unicode="5" horiz-adv-x="993" d="M53 350h266q8 -86 57.5 -133t145 -47t141.5 69.5t46 180.5q0 231 -187 231q-133 0 -190 -116h-275l29 825h838v-225h-600l-13 -365q89 96 271 96q173 0 279 -112q114 -119 114 -316q0 -216 -131 -352q-130 -133 -338 -133q-185 0 -316 111q-129 111 -137 286z" />
<glyph unicode="6" horiz-adv-x="987" d="M31 635q0 595 283 726q96 44 242.5 44t249.5 -87t126 -253h-264q-10 127 -144 127q-111 0 -165 -105.5t-66 -324.5q47 55 111.5 91t155.5 36t162 -31t123 -89q111 -124 111 -331q0 -210 -124 -346q-125 -139 -324 -139q-477 0 -477 682zM297 428q0 -115 54.5 -187.5 t148 -72.5t144 71t50.5 187.5t-53 185t-142 68.5t-145.5 -68.5t-56.5 -183.5z" />
<glyph unicode="7" horiz-adv-x="968" d="M8 1124v236h953v-205q-229 -256 -352.5 -552t-139.5 -603h-274q38 459 285 865q83 136 192 259h-664z" />
<glyph unicode="8" horiz-adv-x="1003" d="M31 385q0 244 213 346q-84 43 -119 128t-35 168t31 151.5t86 119.5q117 107 297 107q195 0 305 -107q102 -98 102 -260q0 -90 -31.5 -172t-109.5 -123q91 -40 148 -137q55 -94 55 -199.5t-29 -187.5t-87 -141q-121 -125 -353 -125q-227 0 -354 125q-119 117 -119 307z M309 397q0 -106 44.5 -165.5t148.5 -59.5q196 0 196 225q0 94 -47 153.5t-149 59.5q-193 0 -193 -213zM336 1005.5q0 -81.5 41 -133t125 -51.5t125 51.5t41 133.5t-41 132t-125 50t-125 -50.5t-41 -132z" />
<glyph unicode="9" horiz-adv-x="987" d="M31 920q0 210 123 346q126 139 325 139q477 0 477 -682q0 -595 -283 -726q-95 -44 -241.5 -44t-250 87t-126.5 253h264q10 -127 144 -127q111 0 165 105.5t66 324.5q-47 -55 -111.5 -91t-155.5 -36t-161.5 30.5t-123.5 88.5q-111 125 -111 332zM293 931q0 -116 53 -184.5 t142 -68.5t145.5 68.5t56.5 183.5t-54 187.5t-153 72.5q-88 0 -141 -74q-49 -69 -49 -185z" />
<glyph unicode=":" horiz-adv-x="344" d="M29 0v276h282v-276h-282zM29 694v275h282v-275h-282z" />
<glyph unicode=";" horiz-adv-x="315" d="M20 0v276h283v-208q0 -177 -61 -264q-65 -92 -222 -123v102q78 20 117 69.5t41 147.5h-158zM20 694v275h283v-275h-283z" />
<glyph unicode="&#x3c;" horiz-adv-x="1060" d="M47 606v193l965 409v-213l-748 -293l748 -292v-213z" />
<glyph unicode="=" horiz-adv-x="1060" d="M47 401v193h965v-193h-965zM47 811v193h965v-193h-965z" />
<glyph unicode="&#x3e;" horiz-adv-x="1060" d="M47 197v213l748 292l-748 293v213l965 -409v-193z" />
<glyph unicode="?" horiz-adv-x="995" d="M33 965q0 203 125 321q127 119 341 119t342 -90t128 -293q0 -173 -119 -278q-39 -35 -86 -71t-74.5 -65.5t-41.5 -62.5q-23 -51 -23 -150h-250q0 121 18.5 195t60.5 123t80.5 75.5t71.5 56t55.5 66.5t22.5 97q0 100 -55.5 140t-147.5 40t-133 -60.5t-51 -162.5h-264z M367 0v268h276v-268h-276z" />
<glyph unicode="@" horiz-adv-x="1449" d="M31 535q0 332 191 535q199 212 532 212q461 0 612 -322q53 -112 53 -257.5t-32.5 -247t-84.5 -169.5q-104 -139 -241 -139q-86 0 -131 32t-56 77q-61 -102 -217 -102q-148 0 -228 104q-69 90 -69 211t27 206t77 147q108 132 272.5 132t207.5 -129l27 109h159l-106 -506 q-12 -55 -12 -74.5t15 -29t41 -9.5t62.5 22.5t67.5 66.5q70 101 70 266q0 473 -516 473q-137 0 -243 -52.5t-177 -136.5q-144 -172 -144 -427.5t149.5 -399t420.5 -143.5q360 0 502 104l63 -119q-59 -51 -200.5 -95t-347.5 -44t-339 52t-223 146q-182 189 -182 507zM535 492 q0 -86 33.5 -131.5t122.5 -45.5t144.5 88.5t55.5 199t-36 155.5t-115.5 45t-142 -74t-62.5 -237z" />
<glyph unicode="A" horiz-adv-x="1306" d="M6 0l486 1360h329l479 -1360h-309l-86 281h-502l-96 -281h-301zM477 514h346l-170 541h-2z" />
<glyph unicode="B" horiz-adv-x="1167" d="M47 0v1360h670q201 0 305 -99.5t104 -271.5q0 -88 -47 -156.5t-118 -97.5q206 -77 206 -329q0 -186 -124.5 -296t-383.5 -110h-612zM322 231h360q98 0 153.5 55.5t55.5 139.5q0 172 -205 172h-364v-367zM322 829h358q172 0 172 148q0 78 -44 112.5t-144 34.5h-342v-295z " />
<glyph unicode="C" horiz-adv-x="1245" d="M31 664q0 346 170 544q170 197 463 197q247 0 408 -143q152 -134 173 -349h-284q-29 117 -111 181.5t-184 64.5q-178 0 -262.5 -128t-84.5 -353t83 -351t249 -126q250 0 310 266h284q-47 -238 -195 -373q-157 -141 -391 -141q-280 0 -448 180q-180 193 -180 531z" />
<glyph unicode="D" horiz-adv-x="1232" d="M47 0v1360h526q282 0 454 -178q177 -183 177 -488q0 -312 -162 -502q-162 -192 -426 -192h-569zM324 231h235q186 0 270 116t84 347q0 233 -87 331q-88 99 -291 99h-211v-893z" />
<glyph unicode="E" horiz-adv-x="1079" d="M47 0v1360h1000v-238h-723v-291h665v-239h-665v-350h755v-242h-1032z" />
<glyph unicode="F" horiz-adv-x="1024" d="M47 0v1360h969v-238h-684v-309h598v-240h-598v-573h-285z" />
<glyph unicode="G" horiz-adv-x="1349" d="M31 686.5q0 145.5 43 277.5t127 230q181 211 499 211q242 0 411 -131q167 -131 183 -334h-286q-12 95 -101 162t-207 67q-172 0 -275 -128t-103 -371q0 -190 89 -322q104 -155 287 -155q140 0 236 92t96 219h-301v227h567v-731h-235l-6 135q-49 -86 -158 -134t-250 -48 t-254.5 60.5t-194.5 161.5t-124 233.5t-43 278z" />
<glyph unicode="H" horiz-adv-x="1191" d="M47 0v1360h285v-512h530v512h287v-1360h-287v610h-530v-610h-285z" />
<glyph unicode="I" d="M47 0v1360h285v-1360h-285z" />
<glyph unicode="J" horiz-adv-x="919" d="M8 375v139h258v-125q0 -104 37 -154.5t130 -50.5t125 48.5t32 160.5v967h284v-993q0 -186 -112.5 -300t-322.5 -114t-320.5 105.5t-110.5 316.5z" />
<glyph unicode="K" horiz-adv-x="1228" d="M47 0v1360h281v-553l520 553h369l-537 -537l549 -823h-346l-404 612l-151 -149v-463h-281z" />
<glyph unicode="L" horiz-adv-x="1015" d="M47 0v1360h285v-1112h674v-248h-959z" />
<glyph unicode="M" horiz-adv-x="1413" d="M47 0v1360h418l246 -998l245 998h410v-1360h-266v932l-254 -932h-283l-252 928v-928h-264z" />
<glyph unicode="N" horiz-adv-x="1200" d="M47 0v1360h301l541 -875v875h266v-1360h-262l-582 913v-913h-264z" />
<glyph unicode="O" horiz-adv-x="1363" d="M31 668q0 348 170 542q172 195 483 195q314 0 481 -197q168 -197 168 -547.5t-167 -529t-482 -178.5t-484 184.5t-169 530.5zM311 662q0 -242 97.5 -353.5t267.5 -111.5t273.5 117t103.5 353.5t-94.5 361t-274.5 124.5t-276.5 -125t-96.5 -366z" />
<glyph unicode="P" horiz-adv-x="1083" d="M47 0v1360h600q195 0 317 -128q119 -125 119 -312q0 -190 -119 -306q-121 -120 -317 -120h-315v-494h-285zM332 725h270q123 0 177.5 56.5t54.5 144.5t-54.5 143t-177.5 55h-270v-399z" />
<glyph unicode="Q" horiz-adv-x="1363" d="M31 668q0 348 170 542q172 195 483 195q314 0 481 -197q168 -197 168 -546q0 -256 -131 -439q-141 -196 -379 -231q0 -117 41 -169t103.5 -52t102.5 50t40 150h250q0 -195 -117 -321.5t-297 -126.5q-171 0 -278 113q-109 115 -109 296v43q-256 35 -392 208t-136 485z M311 662q0 -242 97.5 -353.5t267.5 -111.5t273.5 117t103.5 353.5t-94.5 361t-274.5 124.5t-276.5 -125t-96.5 -366z" />
<glyph unicode="R" horiz-adv-x="1173" d="M47 0v1360h690q184 0 303 -112q115 -107 115 -281q0 -111 -52 -196t-151 -120q90 -29 128 -88t38 -178v-385h-278v350q0 98 -45 140t-168 42h-303v-532h-277zM324 762h356q115 0 162 51t47 130t-46 130t-153 51h-366v-362z" />
<glyph unicode="S" horiz-adv-x="1142" d="M12 408h275q2 -104 85 -165t213 -61t199.5 49.5t69.5 133.5q0 73 -32 103q-52 50 -193.5 81t-255 64.5t-187 84t-108.5 122t-35 168.5t30.5 171t94.5 128q138 118 377 118q241 0 390 -122q144 -117 152 -325h-270q-10 104 -75.5 155.5t-196.5 51.5q-242 0 -242 -166 q0 -59 50 -99t171 -68q277 -66 394 -117q212 -85 212 -353q0 -188 -151 -302q-143 -107 -363 -107q-588 0 -604 455z" />
<glyph unicode="T" horiz-adv-x="1124" d="M8 1122v238h1106v-238h-412v-1122h-284v1122h-410z" />
<glyph unicode="U" horiz-adv-x="1189" d="M47 436v924h289v-897q0 -127 63.5 -201t180.5 -74q272 0 272 265v907h291v-907q0 -248 -145.5 -374t-403.5 -126t-402.5 118.5t-144.5 364.5z" />
<glyph unicode="V" horiz-adv-x="1204" d="M6 1360h303l297 -954l295 954h295l-461 -1360h-268z" />
<glyph unicode="W" horiz-adv-x="1744" d="M6 1360h303l223 -881l189 881h299l207 -881l221 881h291l-381 -1360h-275l-211 885l-215 -885h-266z" />
<glyph unicode="X" horiz-adv-x="1228" d="M8 0l441 694l-416 666h336l245 -440l248 440h330l-414 -653l443 -707h-347l-260 467l-274 -467h-332z" />
<glyph unicode="Y" horiz-adv-x="1222" d="M6 1360h332l287 -553l264 553h328l-455 -850v-510h-285v514z" />
<glyph unicode="Z" horiz-adv-x="1079" d="M8 0v242l707 880h-686v238h1042v-223l-711 -895h711v-242h-1063z" />
<glyph unicode="[" horiz-adv-x="643" d="M147 -266v1739h467v-183h-231v-1378h231v-178h-467z" />
<glyph unicode="\" horiz-adv-x="589" d="M-10 1360h223l389 -1360h-219z" />
<glyph unicode="]" horiz-adv-x="638" d="M20 -88h236v1378h-236v183h472v-1739h-472v178z" />
<glyph unicode="^" horiz-adv-x="929" d="M31 969l338 391h190l342 -391h-285l-149 178l-154 -178h-282z" />
<glyph unicode="_" horiz-adv-x="987" d="M0 -139h993v-119h-993v119z" />
<glyph unicode="`" horiz-adv-x="724" d="M102 1327l97 168l424 -248l-64 -112z" />
<glyph unicode="a" horiz-adv-x="985" d="M27 243q0 116 34.5 180t96 101t146.5 54.5t185 31.5t135 38t35 75t-46 78.5t-131 27.5q-153 0 -175 -149h-248q9 354 443 354q339 0 408 -228q22 -75 22 -169v-637h-248q-12 39 -16 90q-104 -117 -292 -117t-268.5 77t-80.5 193zM293 276q0 -112 127 -112h2q101 0 171 64 q71 66 71 155l2 111q-31 -31 -159 -57t-171 -60.5t-43 -100.5z" />
<glyph unicode="b" horiz-adv-x="1062" d="M53 0v1376h262v-499q112 157 297 157h2q193 0 306 -146q108 -140 108 -374q0 -249 -122 -398q-119 -143 -310.5 -143t-284.5 150l-2 -123h-256zM305 479q0 -129 64.5 -209t162.5 -80t162 85t64 221q0 311 -230 311q-223 0 -223 -328z" />
<glyph unicode="c" horiz-adv-x="974" d="M35 516q0 390 277 488q87 30 189.5 30t183.5 -26.5t141 -77.5q123 -103 137 -283h-269q-10 78 -62 122t-128 44q-205 0 -205 -291q0 -166 59.5 -245.5t137.5 -79.5t133 43t63 125h269q-20 -172 -152 -283q-130 -109 -311 -109q-212 0 -334 137q-129 143 -129 406z" />
<glyph unicode="d" horiz-adv-x="1060" d="M33 514q0 234 109 374q112 146 301 146t302 -157v499h263v-1376h-256l-2 123q-92 -150 -281 -150q-195 0 -313 143q-123 149 -123 398zM303 496q0 -135 63.5 -220.5t161.5 -85.5t163 80t65 209q0 328 -224 328q-229 0 -229 -311z" />
<glyph unicode="e" horiz-adv-x="1019" d="M31 522q0 234 127 373q128 139 360.5 139t352.5 -149.5t120 -450.5h-694q6 -115 66.5 -182.5t142.5 -67.5q166 0 196 113h275q-47 -156 -164 -240t-278 -84q-504 0 -504 549zM305 602h412q-4 106 -65 167q-55 54 -138.5 54t-142 -58t-66.5 -163z" />
<glyph unicode="f" horiz-adv-x="591" d="M8 819v189h150q0 368 426 368h2v-215q-101 0 -133.5 -32.5t-32.5 -120.5h172v-189h-172v-819h-262v819h-150z" />
<glyph unicode="g" horiz-adv-x="1075" d="M33 -55h248q0 -92 60 -142.5t163.5 -50.5t177.5 58.5t74 158.5v166q-29 -68 -103.5 -105.5t-186.5 -37.5t-197 44t-137 116q-99 136 -99 358q0 232 129 380q125 144 312 144t282 -151v125h266v-1018q0 -221 -146 -348q-137 -119 -356 -119q-214 0 -349 113 q-138 116 -138 309zM309 496q0 -135 65 -215t163 -80t162.5 74.5t64.5 203.5q0 324 -227 324t-228 -307z" />
<glyph unicode="h" horiz-adv-x="1019" d="M53 0v1376h266v-499q45 106 199 145q47 12 98 12q156 0 253.5 -85t97.5 -236v-713h-269v625q0 115 -40 156.5t-110.5 41.5t-109.5 -19.5t-66 -53.5q-53 -67 -53 -172v-578h-266z" />
<glyph unicode="i" horiz-adv-x="385" d="M59 0v1008h267v-1008h-267zM59 1128v248h267v-248h-267z" />
<glyph unicode="j" horiz-adv-x="374" d="M-481 -55h250q0 -86 31.5 -136.5t110.5 -50.5t110.5 49.5t31.5 135.5v1065h269v-1076q0 -177 -115 -296q-110 -113 -300 -113t-289 113.5t-99 308.5zM53 1128v248h269v-248h-269z" />
<glyph unicode="k" horiz-adv-x="978" d="M53 0v1376h269v-751l331 383h326l-338 -371l330 -637h-299l-221 453l-129 -134v-319h-269z" />
<glyph unicode="l" horiz-adv-x="370" d="M53 0v1376h266v-1376h-266z" />
<glyph unicode="m" horiz-adv-x="1548" d="M53 0v1008h250v-148q51 100 123 137t147.5 37t115.5 -8t72 -28q60 -36 118 -124q78 160 272 160q153 0 248 -97q96 -98 96 -239v-698h-260v610q0 92 -43 149.5t-116 57.5t-121 -61.5t-48 -153.5v-602h-266v606q0 120 -35 162q-35 41 -125 41q-162 0 -162 -197v-612h-266z " />
<glyph unicode="n" horiz-adv-x="1019" d="M53 0v1008h254v-148q95 174 326 174q228 0 308 -192q26 -62 26 -144v-698h-269v610q0 117 -38.5 158t-133.5 41q-207 0 -207 -231v-578h-266z" />
<glyph unicode="o" horiz-adv-x="1093" d="M31 504q0 242 139 384q142 146 379 146q233 0 373 -144q139 -143 139 -386q0 -241 -139 -386t-376 -145q-120 0 -216.5 39t-163.5 108q-135 142 -135 384zM305 503q0 -306 244 -306t244 306t-244 306t-244 -306z" />
<glyph unicode="p" horiz-adv-x="1060" d="M53 -477v1485h256l2 -123q91 149 279 149h2q196 0 314 -143q122 -149 122 -397q0 -235 -108 -376q-113 -145 -302.5 -145t-302.5 158v-608h-262zM305 528q0 -327 223 -327q229 0 230 311q0 135 -63.5 220t-162 85t-163 -80t-64.5 -209z" />
<glyph unicode="q" horiz-adv-x="1060" d="M33 494q0 248 123 397q117 143 309 143t285 -149l2 123h256v-1067q0 -104 33.5 -143.5t95 -39.5t90 43t28.5 144h250q0 -192 -111 -309q-107 -113 -272 -113t-272 117q-109 118 -109 303v182q-113 -152 -295 -152q-192 0 -304 145q-109 141 -109 376zM303 512 q0 -311 229 -311q223 0 224 327q0 129 -64.5 209t-163 80t-162 -85t-63.5 -220z" />
<glyph unicode="r" horiz-adv-x="645" d="M53 0v1008h250v-121q84 129 219 143q39 4 80 4h35v-272q-37 6 -74 6q-244 0 -244 -244v-524h-266z" />
<glyph unicode="s" horiz-adv-x="956" d="M18 324h275q0 -72 56.5 -111t139.5 -39t137 23.5t54 75.5t-40 77t-154.5 50.5t-205 61.5t-140.5 79t-67.5 94t-17.5 111.5t23.5 111.5t75.5 90q113 86 332 86q408 0 429 -332h-256q-10 70 -52 102t-126 32t-126 -19.5t-42 -63.5t42 -69t147.5 -54.5t195.5 -55 t144.5 -60.5t78 -87t23.5 -140q0 -135 -112.5 -224.5t-333.5 -89.5q-217 0 -348 96q-128 95 -132 255z" />
<glyph unicode="t" horiz-adv-x="915" d="M53 379v901h262v-272h557v-189h-557v-413q0 -201 155 -201t155 196v263h247v-287q0 -172 -97 -281q-108 -123 -310 -123q-206 0 -317 121q-95 105 -95 285z" />
<glyph unicode="u" horiz-adv-x="1013" d="M53 344v664h266v-623q0 -188 170 -188q102 0 154.5 64.5t52.5 164.5v582h265v-1008h-252v141q-102 -168 -314 -168q-150 0 -245 103q-97 104 -97 268z" />
<glyph unicode="v" horiz-adv-x="1015" d="M6 1008h297l211 -666l213 666h281l-363 -1008h-278z" />
<glyph unicode="w" horiz-adv-x="1454" d="M6 1008h281l164 -648l139 648h270l158 -648l153 648h275l-289 -1008h-272l-160 586l-160 -586h-272z" />
<glyph unicode="x" horiz-adv-x="1005" d="M6 0l338 514l-328 494h322l170 -293l172 293h309l-334 -494l344 -514h-325l-176 303l-172 -303h-320z" />
<glyph unicode="y" horiz-adv-x="1013" d="M53 -55h248q0 -90 52.5 -141.5t156.5 -51.5q73 0 128 58q56 60 56 159v164q-29 -68 -103.5 -105.5t-161.5 -37.5t-154.5 25.5t-116.5 73.5q-105 103 -105 265v654h266v-615q0 -188 170 -188q92 0 148.5 53t56.5 135v615h267v-1035q0 -208 -135 -331 q-128 -119 -339.5 -119t-322.5 112.5t-111 309.5z" />
<glyph unicode="z" horiz-adv-x="901" d="M18 0v205l514 592h-479v211h819v-215l-514 -576h529v-217h-869z" />
<glyph unicode="{" horiz-adv-x="673" d="M61 516v176q96 0 132 48t36 167l-10 244q0 178 63 245q74 79 285 79h76v-168h-45q-90 0 -122 -29t-32 -100l13 -365q0 -81 -67 -143q-58 -53 -152 -66q144 -20 200 -130q19 -36 19 -79l-13 -366q0 -72 32 -100.5t122 -28.5h45v-168h-76q-211 0 -285 78q-63 66 -63 245 l10 248q0 119 -35.5 166t-132.5 47z" />
<glyph unicode="|" horiz-adv-x="684" d="M238 -256v1763h208v-1763h-208z" />
<glyph unicode="}" horiz-adv-x="665" d="M20 -100h46q90 0 121.5 28.5t31.5 100.5l-12 366q0 81 67 143q57 53 152 66q-144 20 -200 130q-19 36 -19 79l12 365q0 72 -31.5 100.5t-121.5 28.5h-46v168h76q211 0 286 -79q38 -40 50 -101.5t12 -143.5l-10 -244q0 -119 36 -167t132 -48v-176q-96 0 -132 -47t-36 -166 l10 -248q0 -82 -12 -143.5t-50 -101.5q-76 -78 -286 -78h-76v168z" />
<glyph unicode="~" horiz-adv-x="1126" d="M51 451v206q117 138 271 138q102 0 254 -59q55 -21 106 -39.5t120 -18.5q161 0 273 153v-206q-66 -72 -137.5 -105t-149 -33t-134 18.5t-111 41t-107.5 41t-122 18.5q-138 0 -263 -155z" />
<glyph unicode="&#xa1;" horiz-adv-x="493" d="M97 152q0 351 80 831h141q80 -480 80 -837q0 -107 -10 -146h-283q-8 70 -8 152zM111 1092v268h277v-268h-277z" />
<glyph unicode="&#xa2;" horiz-adv-x="974" d="M35 686q0 254 114.5 379t305.5 139v156h96v-156q178 -12 288.5 -114.5t123.5 -270.5h-269q-10 66 -48 107t-95 51v-606q57 14 96 56t45 108h269q-20 -162 -133 -268q-112 -104 -277 -122v-145h-96v143q-193 12 -305 149q-115 140 -115 394zM299 692q0 -145 45 -224 t111 -97v608q-156 -32 -156 -287z" />
<glyph unicode="&#xa3;" horiz-adv-x="976" d="M53 0v991q0 186 113 300t334 114q213 0 313 -87q117 -102 117 -331v-158h-268v156q0 94 -31 140t-131 46q-98 0 -132 -45q-30 -37 -30 -139v-272h594v-168h-594v-299h594v-248h-879z" />
<glyph unicode="&#xa4;" horiz-adv-x="1097" d="M43 344l139 129q-65 103 -65 229q0 120 65 230l-137 127l145 145l125 -135q105 68 232.5 68t232.5 -68l125 135l146 -145l-136 -125q68 -105 68 -233t-68 -230l138 -127l-146 -147l-129 139q-109 -66 -229 -66q-124 0 -230 66l-129 -139zM248 702q0 -126 88 -212 q90 -89 213 -89q125 0 215 89q88 86 88 212q0 129 -88 216q-90 88 -215 88q-123 0 -213 -88q-88 -87 -88 -216z" />
<glyph unicode="&#xa5;" horiz-adv-x="1083" d="M35 1360h239l267 -449l268 449h238l-394 -627v-135h297v-154h-297v-125h297v-155h-297v-164h-221v164h-297v155h297v125h-297v154h297v135z" />
<glyph unicode="&#xa6;" horiz-adv-x="684" d="M238 -256v842h208v-842h-208zM238 694v813h208v-813h-208z" />
<glyph unicode="&#xa7;" horiz-adv-x="1081" d="M51 90h232q2 -88 71.5 -139t179 -51t168 42t58.5 105t-34 100t-154.5 63t-217 54.5t-158.5 70.5q-118 81 -118 255q0 141 94 231q-80 80 -80 223q0 149 106 241q112 99 319.5 99t328.5 -102t127 -274h-228q-10 90 -64 132t-165 42q-205 0 -205 -140q0 -49 42 -82.5 t145 -58.5q232 -57 301 -85.5t102 -52.5t57 -57q52 -71 52 -202t-92 -223q75 -75 75 -230q0 -159 -127 -255q-119 -89 -305 -89q-498 0 -510 383zM297 588q0 -97 176 -139q161 -37 232 -60q72 39 71 119q0 57 -33.5 94t-116.5 54q-135 26 -233 59q-96 -31 -96 -127z" />
<glyph unicode="&#xa8;" horiz-adv-x="880" d="M102 1186v254h267v-254h-267zM512 1186v254h266v-254h-266z" />
<glyph unicode="&#xaa;" horiz-adv-x="665" d="M76 747.5q0 63.5 18.5 99.5t51.5 57q44 26 184 46q55 8 74.5 21.5t19.5 41.5q0 58 -89.5 58t-105.5 -82h-135q2 86 56.5 140.5t187.5 54.5t184 -57.5t51 -161.5v-351h-135q-8 25 -10 50q-60 -64 -161 -64t-146 42t-45 105.5zM223 766q0 -61 64.5 -61t100.5 35.5t38 84.5 l2 62q-18 -20 -52 -27.5t-68 -15.5t-59.5 -24.5t-25.5 -53.5z" />
<glyph unicode="&#xab;" horiz-adv-x="950" d="M27 649l292 357l130 -140l-193 -217l193 -215l-130 -137zM502 649l292 357l130 -140l-193 -217l193 -215l-130 -137z" />
<glyph unicode="&#xac;" horiz-adv-x="1196" d="M51 766v242h1092v-1008h-242v766h-850z" />
<glyph unicode="&#xad;" horiz-adv-x="561" d="M27 526v207h508v-207h-508z" />
<glyph unicode="&#xaf;" horiz-adv-x="985" d="M102 1233v186h781v-186h-781z" />
<glyph unicode="&#xb0;" horiz-adv-x="753" d="M66 1053q0 229 166 299q59 24 142 24t142 -24.5t97 -68.5q73 -85 73 -230q0 -227 -170 -301q-59 -25 -142 -25t-141.5 25.5t-95.5 69.5q-71 84 -71 231zM205 1055q0 -82 39 -140.5t131 -58.5t131 58.5t39 140.5t-39 139t-131 57t-131 -57t-39 -139z" />
<glyph unicode="&#xb1;" horiz-adv-x="1060" d="M47 -27v193h965v-193h-965zM47 606v193h385v385h193v-385h387v-193h-387v-387h-193v387h-385z" />
<glyph unicode="&#xb2;" horiz-adv-x="532" d="M35 703q0 104 29 156q54 94 176 181q72 53 98.5 86t26.5 80q0 84 -95 84q-45 0 -71.5 -25.5t-26.5 -95.5h-129q0 111 58.5 173.5t162.5 62.5t168 -49t64 -150q0 -74 -34 -119q-51 -68 -163 -147q-90 -63 -94 -123h293v-114h-463z" />
<glyph unicode="&#xb3;" horiz-adv-x="546" d="M43 901h129q0 -113 100 -112q41 0 70 29.5t29 85.5t-34 80t-118 24v92q86 0 111.5 27.5t25.5 66.5q0 104 -88 104q-39 0 -64.5 -29.5t-25.5 -82.5h-123q0 98 60.5 158.5t153.5 60.5t154.5 -51t61.5 -146.5t-79 -140.5q100 -43 100 -157.5t-65.5 -173t-173 -58.5 t-166 59.5t-58.5 163.5z" />
<glyph unicode="&#xb4;" horiz-adv-x="724" d="M102 1247l424 248l97 -168l-457 -192z" />
<glyph unicode="&#xb6;" horiz-adv-x="1179" d="M55 1158q0 62 19.5 104.5t61.5 73.5q91 69 257 69h762l-98 -186v-1424h-221v1426h-332v-1426h-223v1155q-127 18 -176.5 82t-49.5 126z" />
<glyph unicode="&#xb7;" d="M47 543v276h285v-276h-285z" />
<glyph unicode="&#xb8;" horiz-adv-x="440" d="M102 -88h236v-111q0 -257 -236 -278v88q127 10 131 133h-131v168z" />
<glyph unicode="&#xb9;" horiz-adv-x="360" d="M35 1172v92q88 0 123 29.5t41 88.5h108v-679h-133v469h-139z" />
<glyph unicode="&#xba;" horiz-adv-x="724" d="M78 893q0 131 76.5 211t207.5 80t207 -79t76 -212t-76 -213t-209 -80t-207.5 81t-74.5 212zM229 891q0 -168 134 -168t135 168q0 168 -134.5 168t-134.5 -168z" />
<glyph unicode="&#xbb;" horiz-adv-x="950" d="M27 434l192 215l-192 217l129 140l293 -357l-293 -352zM502 434l192 215l-192 217l129 140l293 -357l-293 -352z" />
<glyph unicode="&#xbc;" horiz-adv-x="1243" d="M34 -41l945 1442h139l-946 -1442h-138zM76 1172v92q88 0 123 29.5t41 88.5h108v-679h-133v469h-139zM746 127v117l248 415h149v-428h76v-104h-76v-147h-133v147h-264zM873 231h139v240z" />
<glyph unicode="&#xbd;" horiz-adv-x="1232" d="M34 -41l945 1442h139l-946 -1442h-138zM76 1172v92q88 0 123 29.5t41 88.5h108v-679h-133v469h-139zM746 -20q0 104 29 156q54 94 176 181q72 53 98.5 86t26.5 80q0 84 -95 84q-45 0 -71.5 -25.5t-26.5 -95.5h-129q0 111 58.5 173.5t162.5 62.5t168 -49t64 -150 q0 -74 -34 -119q-51 -68 -163 -147q-90 -63 -94 -123h293v-114h-463z" />
<glyph unicode="&#xbe;" horiz-adv-x="1298" d="M37 901h129q0 -113 100 -112q41 0 70 29.5t29 85.5t-34 80t-118 24v92q86 0 111.5 27.5t25.5 66.5q0 104 -88 104q-39 0 -64.5 -29.5t-25.5 -82.5h-123q0 98 60.5 158.5t153.5 60.5t154.5 -51t61.5 -146.5t-79 -140.5q100 -43 100 -157.5t-65.5 -173t-173 -58.5 t-166 59.5t-58.5 163.5zM131 -41l945 1442h139l-946 -1442h-138zM801 127v117l248 415h149v-428h76v-104h-76v-147h-133v147h-264zM928 231h139v240z" />
<glyph unicode="&#xbf;" horiz-adv-x="995" d="M24 338q0 173 119 278q39 35 86 71t74.5 65.5t41.5 62.5q23 51 23 150h250q0 -121 -18.5 -195t-60.5 -123t-80.5 -75.5t-71.5 -56t-55.5 -66.5t-22.5 -97q0 -100 55.5 -140t147.5 -40t133 60.5t51 162.5h264q0 -203 -125 -321q-127 -119 -341 -119t-342 90t-128 293z M350 1092v268h276v-268h-276z" />
<glyph unicode="&#xc0;" horiz-adv-x="1306" d="M6 0l486 1360h329l479 -1360h-309l-86 281h-502l-96 -281h-301zM331 1679l97 168l424 -248l-64 -112zM477 514h346l-170 541h-2z" />
<glyph unicode="&#xc1;" horiz-adv-x="1306" d="M6 0l486 1360h329l479 -1360h-309l-86 281h-502l-96 -281h-301zM454 1599l424 248l97 -168l-457 -192zM477 514h346l-170 541h-2z" />
<glyph unicode="&#xc2;" horiz-adv-x="1306" d="M6 0l486 1360h329l479 -1360h-309l-86 281h-502l-96 -281h-301zM282 1605l263 275h217l262 -275l-94 -104l-277 242l-276 -242zM477 514h346l-170 541h-2z" />
<glyph unicode="&#xc3;" horiz-adv-x="1306" d="M6 0l486 1360h329l479 -1360h-309l-86 281h-502l-96 -281h-301zM299 1609q60 181 199 181q67 0 153 -50q33 -18 62 -33.5t52 -15.5t50 21.5t37 75.5l154 -56q-35 -111 -96.5 -155.5t-113.5 -44.5t-86 14t-65 32q-81 46 -124 46q-12 0 -37 -16.5t-43 -73.5zM477 514h346 l-170 541h-2z" />
<glyph unicode="&#xc4;" horiz-adv-x="1306" d="M6 0l486 1360h329l479 -1360h-309l-86 281h-502l-96 -281h-301zM315 1538v254h267v-254h-267zM477 514h346l-170 541h-2zM725 1538v254h266v-254h-266z" />
<glyph unicode="&#xc5;" horiz-adv-x="1306" d="M6 0l486 1360h329l479 -1360h-309l-86 281h-502l-96 -281h-301zM440 1683q0 94 52.5 145.5t164 51.5t160.5 -51.5t49 -146.5t-49 -145t-164 -50q-213 0 -213 196zM477 514h346l-170 541h-2zM551 1683q0 -100 104.5 -100t104.5 102t-107 103q-102 0 -102 -105z" />
<glyph unicode="&#xc6;" horiz-adv-x="1804" d="M6 0l486 1360h1280v-238h-723v-291h665v-239h-665v-350h755v-242h-1038v281h-363l-96 -281h-301zM477 514h289v608h-90z" />
<glyph unicode="&#xc7;" horiz-adv-x="1245" d="M31 664q0 346 170 544q170 197 463 197q247 0 408 -143q152 -134 173 -349h-284q-29 117 -111 181.5t-184 64.5q-178 0 -262.5 -128t-84.5 -353t83 -351t249 -126q250 0 310 266h284q-47 -238 -195 -373q-157 -141 -391 -141q-280 0 -448 180q-180 193 -180 531zM538 -88 h236v-111q0 -257 -236 -278v88q127 10 131 133h-131v168z" />
<glyph unicode="&#xc8;" horiz-adv-x="1079" d="M47 0v1360h1000v-238h-723v-291h665v-239h-665v-350h755v-242h-1032zM217 1679l97 168l424 -248l-64 -112z" />
<glyph unicode="&#xc9;" horiz-adv-x="1079" d="M47 0v1360h1000v-238h-723v-291h665v-239h-665v-350h755v-242h-1032zM340 1599l424 248l97 -168l-457 -192z" />
<glyph unicode="&#xca;" horiz-adv-x="1079" d="M47 0v1360h1000v-238h-723v-291h665v-239h-665v-350h755v-242h-1032zM168 1605l263 275h217l262 -275l-94 -104l-277 242l-276 -242z" />
<glyph unicode="&#xcb;" horiz-adv-x="1079" d="M47 0v1360h1000v-238h-723v-291h665v-239h-665v-350h755v-242h-1032zM200 1538v254h267v-254h-267zM610 1538v254h266v-254h-266z" />
<glyph unicode="&#xcc;" d="M-131 1679l97 168l424 -248l-64 -112zM47 0v1360h285v-1360h-285z" />
<glyph unicode="&#xcd;" d="M-9 1599l424 248l97 -168l-457 -192zM47 0v1360h285v-1360h-285z" />
<glyph unicode="&#xce;" d="M-181 1605l263 275h217l262 -275l-94 -104l-277 242l-276 -242zM47 0v1360h285v-1360h-285z" />
<glyph unicode="&#xcf;" d="M-148 1538v254h267v-254h-267zM47 0v1360h285v-1360h-285zM262 1538v254h266v-254h-266z" />
<glyph unicode="&#xd0;" horiz-adv-x="1232" d="M0 578v202h47v580h526q282 0 454 -178q177 -183 177 -488q0 -312 -162 -502q-162 -192 -426 -192h-569v578h-47zM324 231h235q186 0 270 116t84 347q0 233 -87 331q-88 99 -291 99h-211v-344h219v-202h-219v-347z" />
<glyph unicode="&#xd1;" horiz-adv-x="1200" d="M47 0v1360h301l541 -875v875h266v-1360h-262l-582 913v-913h-264zM245 1609q60 181 199 181q67 0 153 -50q33 -18 62 -33.5t52 -15.5t50 21.5t37 75.5l154 -56q-35 -111 -96.5 -155.5t-113.5 -44.5t-86 14t-65 32q-81 46 -124 46q-12 0 -37 -16.5t-43 -73.5z" />
<glyph unicode="&#xd2;" horiz-adv-x="1363" d="M31 668q0 348 170 542q172 195 483 195q314 0 481 -197q168 -197 168 -547.5t-167 -529t-482 -178.5t-484 184.5t-169 530.5zM311 662q0 -242 97.5 -353.5t267.5 -111.5t273.5 117t103.5 353.5t-94.5 361t-274.5 124.5t-276.5 -125t-96.5 -366zM360 1679l97 168l424 -248 l-64 -112z" />
<glyph unicode="&#xd3;" horiz-adv-x="1363" d="M31 668q0 348 170 542q172 195 483 195q314 0 481 -197q168 -197 168 -547.5t-167 -529t-482 -178.5t-484 184.5t-169 530.5zM311 662q0 -242 97.5 -353.5t267.5 -111.5t273.5 117t103.5 353.5t-94.5 361t-274.5 124.5t-276.5 -125t-96.5 -366zM483 1599l424 248l97 -168 l-457 -192z" />
<glyph unicode="&#xd4;" horiz-adv-x="1363" d="M31 668q0 348 170 542q172 195 483 195q314 0 481 -197q168 -197 168 -547.5t-167 -529t-482 -178.5t-484 184.5t-169 530.5zM311 662q0 -242 97.5 -353.5t267.5 -111.5t273.5 117t103.5 353.5t-94.5 361t-274.5 124.5t-276.5 -125t-96.5 -366zM311 1605l263 275h217 l262 -275l-94 -104l-277 242l-276 -242z" />
<glyph unicode="&#xd5;" horiz-adv-x="1363" d="M31 668q0 348 170 542q172 195 483 195q314 0 481 -197q168 -197 168 -547.5t-167 -529t-482 -178.5t-484 184.5t-169 530.5zM311 662q0 -242 97.5 -353.5t267.5 -111.5t273.5 117t103.5 353.5t-94.5 361t-274.5 124.5t-276.5 -125t-96.5 -366zM327 1609q60 181 199 181 q67 0 153 -50q33 -18 62 -33.5t52 -15.5t50 21.5t37 75.5l154 -56q-35 -111 -96.5 -155.5t-113.5 -44.5t-86 14t-65 32q-81 46 -124 46q-12 0 -37 -16.5t-43 -73.5z" />
<glyph unicode="&#xd6;" horiz-adv-x="1363" d="M31 668q0 348 170 542q172 195 483 195q314 0 481 -197q168 -197 168 -547.5t-167 -529t-482 -178.5t-484 184.5t-169 530.5zM311 662q0 -242 97.5 -353.5t267.5 -111.5t273.5 117t103.5 353.5t-94.5 361t-274.5 124.5t-276.5 -125t-96.5 -366zM344 1538v254h267v-254 h-267zM754 1538v254h266v-254h-266z" />
<glyph unicode="&#xd7;" horiz-adv-x="1060" d="M119 430l272 272l-272 273l135 135l272 -272l275 274l135 -137l-272 -273l272 -274l-135 -135l-275 272l-272 -272z" />
<glyph unicode="&#xd8;" horiz-adv-x="1363" d="M31 668q0 348 170 542q172 195 483 195q123 0 244 -39l49 98l151 -55l-57 -115q262 -187 262 -632q0 -352 -167 -530.5t-482 -178.5q-157 0 -272 45l-41 -82l-144 55l49 99q-245 182 -245 598zM311 669q0 -234 90 -350l410 814q-58 20 -127 20q-180 0 -276.5 -125 t-96.5 -359zM526 223q66 -27 150 -26.5t151.5 28t117.5 83.5q108 123 108 367.5t-109 368.5z" />
<glyph unicode="&#xd9;" horiz-adv-x="1189" d="M47 436v924h289v-897q0 -127 63.5 -201t180.5 -74q272 0 272 265v907h291v-907q0 -248 -145.5 -374t-403.5 -126t-402.5 118.5t-144.5 364.5zM272 1679l97 168l424 -248l-64 -112z" />
<glyph unicode="&#xda;" horiz-adv-x="1189" d="M47 436v924h289v-897q0 -127 63.5 -201t180.5 -74q272 0 272 265v907h291v-907q0 -248 -145.5 -374t-403.5 -126t-402.5 118.5t-144.5 364.5zM395 1599l424 248l97 -168l-457 -192z" />
<glyph unicode="&#xdb;" horiz-adv-x="1189" d="M47 436v924h289v-897q0 -127 63.5 -201t180.5 -74q272 0 272 265v907h291v-907q0 -248 -145.5 -374t-403.5 -126t-402.5 118.5t-144.5 364.5zM223 1605l263 275h217l262 -275l-94 -104l-277 242l-276 -242z" />
<glyph unicode="&#xdc;" horiz-adv-x="1189" d="M47 436v924h289v-897q0 -127 63.5 -201t180.5 -74q272 0 272 265v907h291v-907q0 -248 -145.5 -374t-403.5 -126t-402.5 118.5t-144.5 364.5zM256 1538v254h267v-254h-267zM666 1538v254h266v-254h-266z" />
<glyph unicode="&#xdd;" horiz-adv-x="1222" d="M6 1360h332l287 -553l264 553h328l-455 -850v-510h-285v514zM421 1599l424 248l97 -168l-457 -192z" />
<glyph unicode="&#xde;" horiz-adv-x="1083" d="M47 0v1360h285v-211h342q174 0 294 -129q115 -125 115 -311q0 -187 -116.5 -307.5t-302.5 -120.5h-332v-281h-285zM332 514h270q100 0 166 56.5t66 143.5t-62.5 142t-169.5 55h-270v-397z" />
<glyph unicode="&#xdf;" horiz-adv-x="1034" d="M53 0v1020q0 170 112 268q118 103 339 103q213 0 330 -101q106 -91 106 -256q0 -146 -86 -216q-25 -21 -51 -38q175 -77 205 -240q10 -51 10 -132t-32 -165.5t-91 -144.5q-121 -125 -332 -125q-78 0 -117 9v215q28 -4 58 -4q117 0 184.5 64.5t67.5 148.5t-21.5 130 t-59.5 74q-72 52 -212 56v168q169 5 199 104q10 31 10 68q0 96 -53.5 134t-126 38t-125 -41t-52.5 -131v-1006h-262z" />
<glyph unicode="&#xe0;" horiz-adv-x="985" d="M27 243q0 116 34.5 180t96 101t146.5 54.5t185 31.5t135 38t35 75t-46 78.5t-131 27.5q-153 0 -175 -149h-248q9 354 443 354q339 0 408 -228q22 -75 22 -169v-637h-248q-12 39 -16 90q-104 -117 -292 -117t-268.5 77t-80.5 193zM170 1327l97 168l424 -248l-64 -112z M293 276q0 -113 129 -112q101 0 171 64q71 66 71 155l2 111q-31 -31 -159 -57t-171 -60.5t-43 -100.5z" />
<glyph unicode="&#xe1;" horiz-adv-x="985" d="M27 243q0 116 34.5 180t96 101t146.5 54.5t185 31.5t135 38t35 75t-46 78.5t-131 27.5q-153 0 -175 -149h-248q9 354 443 354q339 0 408 -228q22 -75 22 -169v-637h-248q-12 39 -16 90q-104 -117 -292 -117t-268.5 77t-80.5 193zM292 1247l424 248l97 -168l-457 -192z M293 276q0 -113 129 -112q101 0 171 64q71 66 71 155l2 111q-31 -31 -159 -57t-171 -60.5t-43 -100.5z" />
<glyph unicode="&#xe2;" horiz-adv-x="985" d="M27 243q0 116 34.5 180t96 101t146.5 54.5t185 31.5t135 38t35 75t-46 78.5t-131 27.5q-153 0 -175 -149h-248q9 354 443 354q339 0 408 -228q22 -75 22 -169v-637h-248q-12 39 -16 90q-104 -117 -292 -117t-268.5 77t-80.5 193zM120 1253l263 275h217l262 -275l-94 -104 l-277 242l-276 -242zM293 276q0 -113 129 -112q101 0 171 64q71 66 71 155l2 111q-31 -31 -159 -57t-171 -60.5t-43 -100.5z" />
<glyph unicode="&#xe3;" horiz-adv-x="985" d="M27 243q0 116 34.5 180t96 101t146.5 54.5t185 31.5t135 38t35 75t-46 78.5t-131 27.5q-153 0 -175 -149h-248q9 354 443 354q339 0 408 -228q22 -75 22 -169v-637h-248q-12 39 -16 90q-104 -117 -292 -117t-268.5 77t-80.5 193zM139 1257q60 181 199 181q67 0 153 -50 q33 -18 62 -33.5t52 -15.5t50 21.5t37 75.5l154 -56q-35 -111 -96.5 -155.5t-113.5 -44.5t-86 14t-65 32q-81 46 -124 46q-12 0 -37 -16.5t-43 -73.5zM293 276q0 -113 129 -112q101 0 171 64q71 66 71 155l2 111q-31 -31 -159 -57t-171 -60.5t-43 -100.5z" />
<glyph unicode="&#xe4;" horiz-adv-x="985" d="M27 243q0 116 34.5 180t96 101t146.5 54.5t185 31.5t135 38t35 75t-46 78.5t-131 27.5q-153 0 -175 -149h-248q9 354 443 354q339 0 408 -228q22 -75 22 -169v-637h-248q-12 39 -16 90q-104 -117 -292 -117t-268.5 77t-80.5 193zM153 1186v254h267v-254h-267zM293 276 q0 -113 129 -112q101 0 171 64q71 66 71 155l2 111q-31 -31 -159 -57t-171 -60.5t-43 -100.5zM563 1186v254h266v-254h-266z" />
<glyph unicode="&#xe5;" horiz-adv-x="985" d="M27 243q0 116 34.5 180t96 101t146.5 54.5t185 31.5t135 38t35 75t-46 78.5t-131 27.5q-153 0 -175 -149h-248q9 354 443 354q339 0 408 -228q22 -75 22 -169v-637h-248q-12 39 -16 90q-104 -117 -292 -117t-268.5 77t-80.5 193zM278 1331q0 94 52.5 145.5t164 51.5 t160.5 -51.5t49 -146.5t-49 -145t-164 -50q-213 0 -213 196zM293 276q0 -113 129 -112q101 0 171 64q71 66 71 155l2 111q-31 -31 -159 -57t-171 -60.5t-43 -100.5zM389 1331q0 -100 104.5 -100t104.5 102t-107 103q-102 0 -102 -105z" />
<glyph unicode="&#xe6;" horiz-adv-x="1650" d="M27 243q0 116 34.5 180t96 101t146.5 54.5t185 31.5t135 38t35 75t-46 78.5t-131 27.5q-153 0 -175 -149h-248q9 354 443 354q228 0 332 -102q127 102 319 102q473 0 473 -600h-694q6 -115 66.5 -182.5t142.5 -67.5q166 0 196 113h275q-47 -156 -164 -240t-279 -84 q-270 0 -405 170q-74 -86 -169 -128t-251 -42t-236.5 77t-80.5 193zM293 276q0 -113 129 -112q101 0 171 64q71 66 71 155l2 111q-31 -31 -159 -57t-171 -60.5t-43 -100.5zM940 602h412q-4 107 -66 167q-56 54 -138.5 54t-141 -58t-66.5 -163z" />
<glyph unicode="&#xe7;" horiz-adv-x="974" d="M35 516q0 390 277 488q87 30 189.5 30t183.5 -26.5t141 -77.5q123 -103 137 -283h-269q-10 78 -62 122t-128 44q-205 0 -205 -291q0 -166 59.5 -245.5t137.5 -79.5t133 43t63 125h269q-20 -172 -152 -283q-130 -109 -311 -109q-212 0 -334 137q-129 143 -129 406z M397 -88h236v-111q0 -257 -236 -278v88q127 10 131 133h-131v168z" />
<glyph unicode="&#xe8;" horiz-adv-x="1019" d="M31 522q0 234 127 373q128 139 360.5 139t352.5 -149.5t120 -450.5h-694q6 -115 66.5 -182.5t142.5 -67.5q166 0 196 113h275q-47 -156 -164 -240t-278 -84q-504 0 -504 549zM188 1327l97 168l424 -248l-64 -112zM305 602h412q-4 106 -65 167q-55 54 -138.5 54t-142 -58 t-66.5 -163z" />
<glyph unicode="&#xe9;" horiz-adv-x="1019" d="M31 522q0 234 127 373q128 139 360.5 139t352.5 -149.5t120 -450.5h-694q6 -115 66.5 -182.5t142.5 -67.5q166 0 196 113h275q-47 -156 -164 -240t-278 -84q-504 0 -504 549zM305 602h412q-4 106 -65 167q-55 54 -138.5 54t-142 -58t-66.5 -163zM311 1247l424 248 l97 -168l-457 -192z" />
<glyph unicode="&#xea;" horiz-adv-x="1019" d="M31 522q0 234 127 373q128 139 360.5 139t352.5 -149.5t120 -450.5h-694q6 -115 66.5 -182.5t142.5 -67.5q166 0 196 113h275q-47 -156 -164 -240t-278 -84q-504 0 -504 549zM139 1253l263 275h217l262 -275l-94 -104l-277 242l-276 -242zM305 602h412q-4 106 -65 167 q-55 54 -138.5 54t-142 -58t-66.5 -163z" />
<glyph unicode="&#xeb;" horiz-adv-x="1019" d="M31 522q0 234 127 373q128 139 360.5 139t352.5 -149.5t120 -450.5h-694q6 -115 66.5 -182.5t142.5 -67.5q166 0 196 113h275q-47 -156 -164 -240t-278 -84q-504 0 -504 549zM172 1186v254h267v-254h-267zM305 602h412q-4 106 -65 167q-55 54 -138.5 54t-142 -58 t-66.5 -163zM582 1186v254h266v-254h-266z" />
<glyph unicode="&#xec;" horiz-adv-x="548" d="M-45 1327l97 168l424 -248l-64 -112zM141 0v1008h267v-1008h-267z" />
<glyph unicode="&#xed;" horiz-adv-x="548" d="M77 1247l424 248l97 -168l-457 -192zM141 0v1008h267v-1008h-267z" />
<glyph unicode="&#xee;" horiz-adv-x="548" d="M-95 1253l263 275h217l262 -275l-94 -104l-277 242l-276 -242zM141 0v1008h267v-1008h-267z" />
<glyph unicode="&#xef;" horiz-adv-x="548" d="M-62 1186v254h267v-254h-267zM141 0v1008h267v-1008h-267zM348 1186v254h266v-254h-266z" />
<glyph unicode="&#xf0;" horiz-adv-x="1052" d="M31 494q0 222 115 356q121 139 327 139q146 0 211 -50q31 -24 59 -62q-16 145 -104 276l-170 -98l-37 57l166 96q-95 112 -195 168h285q43 -27 86 -65l139 80l37 -58l-127 -73q185 -227 185 -678q0 -322 -150 -480q-124 -129 -317 -129q-261 0 -391 151 q-119 137 -119 370zM303 474q0 -134 61.5 -206.5t162.5 -72.5t165 69.5t64 204.5t-56.5 214t-170.5 79t-170 -77t-56 -211z" />
<glyph unicode="&#xf1;" horiz-adv-x="1019" d="M53 0v1008h254v-148q95 174 326 174q228 0 308 -192q26 -62 26 -144v-698h-269v610q0 117 -38.5 158t-133.5 41q-207 0 -207 -231v-578h-266zM176 1257q60 181 199 181q67 0 153 -50q33 -18 62 -33.5t52 -15.5t50 21.5t37 75.5l154 -56q-35 -111 -96.5 -155.5 t-113.5 -44.5t-86 14t-65 32q-81 46 -124 46q-12 0 -37 -16.5t-43 -73.5z" />
<glyph unicode="&#xf2;" horiz-adv-x="1093" d="M31 504q0 242 139 384q142 146 379 146q233 0 373 -144q139 -143 139 -386q0 -241 -139 -386t-376 -145q-120 0 -216.5 39t-163.5 108q-135 142 -135 384zM225 1327l97 168l424 -248l-64 -112zM305 503q0 -306 244 -306t244 306t-244 306t-244 -306z" />
<glyph unicode="&#xf3;" horiz-adv-x="1093" d="M31 504q0 242 139 384q142 146 379 146q233 0 373 -144q139 -143 139 -386q0 -241 -139 -386t-376 -145q-120 0 -216.5 39t-163.5 108q-135 142 -135 384zM305 503q0 -306 244 -306t244 306t-244 306t-244 -306zM348 1247l424 248l97 -168l-457 -192z" />
<glyph unicode="&#xf4;" horiz-adv-x="1093" d="M31 504q0 242 139 384q142 146 379 146q233 0 373 -144q139 -143 139 -386q0 -241 -139 -386t-376 -145q-120 0 -216.5 39t-163.5 108q-135 142 -135 384zM176 1253l263 275h217l262 -275l-94 -104l-277 242l-276 -242zM305 503q0 -306 244 -306t244 306t-244 306 t-244 -306z" />
<glyph unicode="&#xf5;" horiz-adv-x="1093" d="M31 504q0 242 139 384q142 146 379 146q233 0 373 -144q139 -143 139 -386q0 -241 -139 -386t-376 -145q-120 0 -216.5 39t-163.5 108q-135 142 -135 384zM192 1257q60 181 199 181q67 0 153 -50q33 -18 62 -33.5t52 -15.5t50 21.5t37 75.5l154 -56 q-35 -111 -96.5 -155.5t-113.5 -44.5t-86 14t-65 32q-81 46 -124 46q-12 0 -37 -16.5t-43 -73.5zM305 503q0 -306 244 -306t244 306t-244 306t-244 -306z" />
<glyph unicode="&#xf6;" horiz-adv-x="1093" d="M31 504q0 242 139 384q142 146 379 146q233 0 373 -144q139 -143 139 -386q0 -241 -139 -386t-376 -145q-120 0 -216.5 39t-163.5 108q-135 142 -135 384zM208 1186v254h267v-254h-267zM305 503q0 -306 244 -306t244 306t-244 306t-244 -306zM618 1186v254h266v-254h-266 z" />
<glyph unicode="&#xf7;" horiz-adv-x="1060" d="M47 606v193h965v-193h-965zM387 129v276h285v-276h-285zM387 1004v276h285v-276h-285z" />
<glyph unicode="&#xf8;" horiz-adv-x="1093" d="M31 485.5q0 137.5 35.5 235.5t103.5 167q142 146 379 146q86 0 156 -20l47 102l129 -53l-47 -102q109 -66 168 -182.5t59 -256t-36 -237t-102.5 -167t-161.5 -107.5t-195.5 -38t-178.5 21l-49 -111l-121 54l47 106q-113 66 -173 185.5t-60 257zM305 504q0 -158 64 -234 l239 533q-42 6 -59 6q-244 0 -244 -305zM483 203q31 -6 66 -6q244 0 244 307q0 152 -64 231z" />
<glyph unicode="&#xf9;" horiz-adv-x="1013" d="M53 344v664h266v-623q0 -188 170 -188q102 0 154.5 64.5t52.5 164.5v582h265v-1008h-252v141q-102 -168 -314 -168q-150 0 -245 103q-97 104 -97 268zM184 1327l97 168l424 -248l-64 -112z" />
<glyph unicode="&#xfa;" horiz-adv-x="1013" d="M53 344v664h266v-623q0 -188 170 -188q102 0 154.5 64.5t52.5 164.5v582h265v-1008h-252v141q-102 -168 -314 -168q-150 0 -245 103q-97 104 -97 268zM307 1247l424 248l97 -168l-457 -192z" />
<glyph unicode="&#xfb;" horiz-adv-x="1013" d="M53 344v664h266v-623q0 -188 170 -188q102 0 154.5 64.5t52.5 164.5v582h265v-1008h-252v141q-102 -168 -314 -168q-150 0 -245 103q-97 104 -97 268zM135 1253l263 275h217l262 -275l-94 -104l-277 242l-276 -242z" />
<glyph unicode="&#xfc;" horiz-adv-x="1013" d="M53 344v664h266v-623q0 -188 170 -188q102 0 154.5 64.5t52.5 164.5v582h265v-1008h-252v141q-102 -168 -314 -168q-150 0 -245 103q-97 104 -97 268zM188 1186v254h267v-254h-267zM598 1186v254h266v-254h-266z" />
<glyph unicode="&#xfd;" horiz-adv-x="1013" d="M53 -55h248q0 -90 52.5 -141.5t156.5 -51.5q73 0 128 58q56 60 56 159v164q-29 -68 -103.5 -105.5t-161.5 -37.5t-154.5 25.5t-116.5 73.5q-105 103 -105 265v654h266v-615q0 -188 170 -188q92 0 148.5 53t56.5 135v615h267v-1035q0 -208 -135 -331 q-128 -119 -339.5 -119t-322.5 112.5t-111 309.5zM307 1247l424 248l97 -168l-457 -192z" />
<glyph unicode="&#xfe;" horiz-adv-x="1060" d="M53 -477v1853h262v-493q41 80 105.5 115.5t173.5 35.5t190.5 -44t137.5 -118q108 -146 108 -376q0 -238 -108 -376q-115 -147 -308 -147q-92 0 -173 36t-126 118v-604h-262zM303 479q0 -129 63 -208q66 -81 164 -81t162 85t64 221q0 311 -230 311q-223 0 -223 -328z" />
<glyph unicode="&#xff;" horiz-adv-x="1013" d="M53 -55h248q0 -90 52.5 -141.5t156.5 -51.5q73 0 128 58q56 60 56 159v164q-29 -68 -103.5 -105.5t-161.5 -37.5t-154.5 25.5t-116.5 73.5q-105 103 -105 265v654h266v-615q0 -188 170 -188q92 0 148.5 53t56.5 135v615h267v-1035q0 -208 -135 -331 q-128 -119 -339.5 -119t-322.5 112.5t-111 309.5zM168 1186v254h267v-254h-267zM578 1186v254h266v-254h-266z" />
<glyph unicode="&#x152;" horiz-adv-x="2091" d="M31 715q0 305 180 497q182 193 475 193q208 0 371 -113v68h999v-238h-723v-291h666v-239h-666v-350h758v-242h-1034v49q-147 -96 -333 -96t-310.5 52t-209.5 151q-173 200 -173 559zM311 696q0 -210 110 -354q52 -68 125 -106.5t155 -38.5t146 33.5t109 95.5 q97 132 97 329q0 498 -377 498q-166 0 -266 -129q-99 -126 -99 -328z" />
<glyph unicode="&#x153;" horiz-adv-x="1761" d="M31 504q0 242 139 384q142 146 373 146t364 -131q131 131 358.5 131t347.5 -149.5t120 -450.5h-695q6 -115 66.5 -182.5t143.5 -67.5q166 0 196 113h274q-47 -156 -163.5 -240t-278.5 -84q-246 0 -371 129q-135 -129 -356 -129q-241 0 -383 147q-135 142 -135 384z M305 503q0 -306 244 -306t244 306t-244 306t-244 -306zM1047 602h411q-4 106 -66 167q-54 54 -137.5 54t-141.5 -58t-66 -163z" />
<glyph unicode="&#x178;" horiz-adv-x="1222" d="M6 1360h332l287 -553l264 553h328l-455 -850v-510h-285v514zM290 1538v254h267v-254h-267zM700 1538v254h266v-254h-266z" />
<glyph unicode="&#x2c6;" horiz-adv-x="946" d="M102 1253l263 275h217l262 -275l-94 -104l-277 242l-276 -242z" />
<glyph unicode="&#x2dc;" horiz-adv-x="911" d="M102 1257q60 181 199 181q67 0 153 -50q33 -18 62 -33.5t52 -15.5t50 21.5t37 75.5l154 -56q-35 -111 -96.5 -155.5t-113.5 -44.5t-86 14t-65 32q-81 46 -124 46q-12 0 -37 -16.5t-43 -73.5z" />
<glyph unicode="&#x2000;" horiz-adv-x="940" />
<glyph unicode="&#x2001;" horiz-adv-x="1880" />
<glyph unicode="&#x2002;" horiz-adv-x="940" />
<glyph unicode="&#x2003;" horiz-adv-x="1880" />
<glyph unicode="&#x2004;" horiz-adv-x="626" />
<glyph unicode="&#x2005;" horiz-adv-x="470" />
<glyph unicode="&#x2006;" horiz-adv-x="313" />
<glyph unicode="&#x2007;" horiz-adv-x="313" />
<glyph unicode="&#x2008;" horiz-adv-x="235" />
<glyph unicode="&#x2009;" />
<glyph unicode="&#x200a;" horiz-adv-x="104" />
<glyph unicode="&#x2010;" horiz-adv-x="561" d="M27 526v207h508v-207h-508z" />
<glyph unicode="&#x2011;" horiz-adv-x="561" d="M27 526v207h508v-207h-508z" />
<glyph unicode="&#x2012;" horiz-adv-x="561" d="M27 526v207h508v-207h-508z" />
<glyph unicode="&#x2013;" horiz-adv-x="882" d="M27 526v207h829v-207h-829z" />
<glyph unicode="&#x2014;" horiz-adv-x="1253" d="M27 526v207h1200v-207h-1200z" />
<glyph unicode="&#x2018;" d="M47 1206v209h283v-276h-158q2 -98 41 -147.5t117 -69.5v-103q-156 31 -222 124q-61 87 -61 263z" />
<glyph unicode="&#x2019;" d="M49 819v103q78 20 117 69t41 148h-158v276h283v-209q0 -176 -62 -263q-63 -91 -221 -124z" />
<glyph unicode="&#x201a;" horiz-adv-x="399" d="M61 0v276h283v-208q0 -177 -62 -264q-64 -92 -221 -123v102q78 20 117 69.5t41 147.5h-158z" />
<glyph unicode="&#x201c;" horiz-adv-x="753" d="M47 1206v209h283v-276h-158q2 -98 41 -147.5t117 -69.5v-103q-156 31 -222 124q-61 87 -61 263zM424 1206v209h283v-276h-158q2 -98 41 -147.5t117 -69.5v-103q-156 31 -222 124q-61 87 -61 263z" />
<glyph unicode="&#x201d;" horiz-adv-x="753" d="M49 819v103q78 20 117 69t41 148h-158v276h283v-209q0 -176 -62 -263q-63 -91 -221 -124zM426 819v103q78 20 117 69t41 148h-158v276h283v-209q0 -176 -62 -263q-63 -91 -221 -124z" />
<glyph unicode="&#x201e;" horiz-adv-x="798" d="M61 0v276h283v-208q0 -177 -62 -264q-64 -92 -221 -123v102q78 20 117 69.5t41 147.5h-158zM460 0v276h283v-208q0 -177 -62 -264q-64 -92 -221 -123v102q78 20 117 69.5t41 147.5h-158z" />
<glyph unicode="&#x2022;" horiz-adv-x="856" d="M92 702q0 128 96 211q95 82 240 82q140 0 236 -82q96 -83 96 -210q0 -62 -25.5 -115t-70.5 -92q-98 -84 -236 -84q-143 0 -240 84q-96 83 -96 206z" />
<glyph unicode="&#x2026;" horiz-adv-x="1884" d="M47 0v276h285v-276h-285zM801 0v276h285v-276h-285zM1554 0v276h285v-276h-285z" />
<glyph unicode="&#x202f;" />
<glyph unicode="&#x2039;" horiz-adv-x="475" d="M27 649l292 357l130 -140l-193 -217l193 -215l-130 -137z" />
<glyph unicode="&#x203a;" horiz-adv-x="475" d="M27 434l192 215l-192 217l129 140l293 -357l-293 -352z" />
<glyph unicode="&#x205f;" horiz-adv-x="470" />
<glyph unicode="&#x20ac;" horiz-adv-x="1271" d="M18 424l37 156h58q-2 20 -2 40v78q0 17 2 31h-95l37 160h76q66 244 215.5 380t396.5 136q188 0 355 -102l-131 -240q-80 96 -210 96q-249 0 -331 -270h448l-83 -160h-394q0 -116 6 -149h306l-84 -156h-183q43 -106 116 -164.5t171 -58.5q188 0 266 139l238 -133 q-78 -119 -206 -186.5t-261 -67.5t-230.5 29.5t-175.5 89.5q-167 126 -223 352h-119z" />
<glyph unicode="&#x2122;" horiz-adv-x="948" d="M31 1255v105h377v-105h-132v-421h-110v421h-135zM455 836v524h127l100 -270l98 270h123v-526h-106v290l-113 -290l-125 303v-301h-104z" />
<glyph unicode="&#xe000;" horiz-adv-x="1003" d="M0 0v1004h1004v-1004h-1004z" />
<glyph unicode="&#xfb01;" horiz-adv-x="958" d="M8 819v189h150q0 174 102 271t305 97h346v-248h-307q-111 0 -138 -14q-46 -25 -46 -106h172v-189h-172v-819h-262v819h-150zM645 0v1008h266v-1008h-266z" />
<glyph unicode="&#xfb02;" horiz-adv-x="964" d="M8 819v189h150q0 369 428 368v-215q-101 0 -133.5 -32.5t-32.5 -120.5h225v368h266v-1376h-266v819h-225v-819h-262v819h-150z" />
</font>
</defs>
</svg>
